<mxfile host="www.draw.io" modified="2019-10-23T16:26:16.588Z" agent="Mozilla/5.0 (Windows NT 10.0; Win64; x64; rv:69.0) Gecko/20100101 Firefox/69.0" etag="arOBkqwxxKKvrEpopeCh" version="12.1.4" type="github" pages="1">
  <diagram id="43vNWwg8jOlzyk5GfrOZ" name="Page-1">
    <mxGraphModel dx="1352" dy="1255" grid="1" gridSize="10" guides="1" tooltips="1" connect="1" arrows="1" fold="1" page="1" pageScale="1" pageWidth="1100" pageHeight="850" math="0" shadow="0">
      <root>
        <mxCell id="0"/>
        <mxCell id="1" parent="0"/>
        <mxCell id="r0ZETI2wqyOW0yTTkkn_-1" value="User_Management" style="swimlane;fontStyle=1;align=center;verticalAlign=top;childLayout=stackLayout;horizontal=1;startSize=26;horizontalStack=0;resizeParent=1;resizeParentMax=0;resizeLast=0;collapsible=1;marginBottom=0;" vertex="1" parent="1">
          <mxGeometry x="320" y="100" width="250" height="160" as="geometry"/>
        </mxCell>
        <mxCell id="r0ZETI2wqyOW0yTTkkn_-2" value="-_userList: List&lt;User&gt;" style="text;strokeColor=none;fillColor=none;align=left;verticalAlign=top;spacingLeft=4;spacingRight=4;overflow=hidden;rotatable=0;points=[[0,0.5],[1,0.5]];portConstraint=eastwest;" vertex="1" parent="r0ZETI2wqyOW0yTTkkn_-1">
          <mxGeometry y="26" width="250" height="26" as="geometry"/>
        </mxCell>
        <mxCell id="r0ZETI2wqyOW0yTTkkn_-3" value="" style="line;strokeWidth=1;fillColor=none;align=left;verticalAlign=middle;spacingTop=-1;spacingLeft=3;spacingRight=3;rotatable=0;labelPosition=right;points=[];portConstraint=eastwest;" vertex="1" parent="r0ZETI2wqyOW0yTTkkn_-1">
          <mxGeometry y="52" width="250" height="8" as="geometry"/>
        </mxCell>
        <mxCell id="r0ZETI2wqyOW0yTTkkn_-4" value="+ User_Management()&#xa;+ CreateUser (uname:string, pword:string)&#xa;+ DeleteUser (uname:string)&#xa;+ EditUser (uname:string)&#xa;&#xa;" style="text;strokeColor=none;fillColor=none;align=left;verticalAlign=top;spacingLeft=4;spacingRight=4;overflow=hidden;rotatable=0;points=[[0,0.5],[1,0.5]];portConstraint=eastwest;" vertex="1" parent="r0ZETI2wqyOW0yTTkkn_-1">
          <mxGeometry y="60" width="250" height="100" as="geometry"/>
        </mxCell>
        <mxCell id="r0ZETI2wqyOW0yTTkkn_-5" value="User" style="swimlane;fontStyle=1;align=center;verticalAlign=top;childLayout=stackLayout;horizontal=1;startSize=26;horizontalStack=0;resizeParent=1;resizeParentMax=0;resizeLast=0;collapsible=1;marginBottom=0;" vertex="1" parent="1">
          <mxGeometry x="360" y="300" width="190" height="168" as="geometry"/>
        </mxCell>
        <mxCell id="r0ZETI2wqyOW0yTTkkn_-6" value="-_username: string&#xa;-_password: string&#xa;-_position: string&#xa;" style="text;strokeColor=none;fillColor=none;align=left;verticalAlign=top;spacingLeft=4;spacingRight=4;overflow=hidden;rotatable=0;points=[[0,0.5],[1,0.5]];portConstraint=eastwest;" vertex="1" parent="r0ZETI2wqyOW0yTTkkn_-5">
          <mxGeometry y="26" width="190" height="64" as="geometry"/>
        </mxCell>
        <mxCell id="r0ZETI2wqyOW0yTTkkn_-7" value="" style="line;strokeWidth=1;fillColor=none;align=left;verticalAlign=middle;spacingTop=-1;spacingLeft=3;spacingRight=3;rotatable=0;labelPosition=right;points=[];portConstraint=eastwest;" vertex="1" parent="r0ZETI2wqyOW0yTTkkn_-5">
          <mxGeometry y="90" width="190" height="8" as="geometry"/>
        </mxCell>
        <mxCell id="r0ZETI2wqyOW0yTTkkn_-8" value="+User(uname:string, pass:string)" style="text;strokeColor=none;fillColor=none;align=left;verticalAlign=top;spacingLeft=4;spacingRight=4;overflow=hidden;rotatable=0;points=[[0,0.5],[1,0.5]];portConstraint=eastwest;" vertex="1" parent="r0ZETI2wqyOW0yTTkkn_-5">
          <mxGeometry y="98" width="190" height="70" as="geometry"/>
        </mxCell>
        <mxCell id="r0ZETI2wqyOW0yTTkkn_-9" value="Customer" style="swimlane;fontStyle=1;align=center;verticalAlign=top;childLayout=stackLayout;horizontal=1;startSize=26;horizontalStack=0;resizeParent=1;resizeParentMax=0;resizeLast=0;collapsible=1;marginBottom=0;" vertex="1" parent="1">
          <mxGeometry x="120" y="490" width="300" height="178" as="geometry"/>
        </mxCell>
        <mxCell id="r0ZETI2wqyOW0yTTkkn_-10" value="+_customerOrders: List&lt;Order&gt;&#xa;_-address:string&#xa;" style="text;strokeColor=none;fillColor=none;align=left;verticalAlign=top;spacingLeft=4;spacingRight=4;overflow=hidden;rotatable=0;points=[[0,0.5],[1,0.5]];portConstraint=eastwest;" vertex="1" parent="r0ZETI2wqyOW0yTTkkn_-9">
          <mxGeometry y="26" width="300" height="44" as="geometry"/>
        </mxCell>
        <mxCell id="r0ZETI2wqyOW0yTTkkn_-11" value="" style="line;strokeWidth=1;fillColor=none;align=left;verticalAlign=middle;spacingTop=-1;spacingLeft=3;spacingRight=3;rotatable=0;labelPosition=right;points=[];portConstraint=eastwest;" vertex="1" parent="r0ZETI2wqyOW0yTTkkn_-9">
          <mxGeometry y="70" width="300" height="8" as="geometry"/>
        </mxCell>
        <mxCell id="r0ZETI2wqyOW0yTTkkn_-12" value="+Customer(uname:string, pass:string, addresss:string)&#xa;+PlaceOrder(salesM: SalesManagement)&#xa;+CheckOrder()&#xa;" style="text;strokeColor=none;fillColor=none;align=left;verticalAlign=top;spacingLeft=4;spacingRight=4;overflow=hidden;rotatable=0;points=[[0,0.5],[1,0.5]];portConstraint=eastwest;" vertex="1" parent="r0ZETI2wqyOW0yTTkkn_-9">
          <mxGeometry y="78" width="300" height="100" as="geometry"/>
        </mxCell>
        <mxCell id="r0ZETI2wqyOW0yTTkkn_-13" value="DeliveryMan" style="swimlane;fontStyle=1;align=center;verticalAlign=top;childLayout=stackLayout;horizontal=1;startSize=26;horizontalStack=0;resizeParent=1;resizeParentMax=0;resizeLast=0;collapsible=1;marginBottom=0;" vertex="1" parent="1">
          <mxGeometry x="470" y="490" width="240" height="120" as="geometry"/>
        </mxCell>
        <mxCell id="r0ZETI2wqyOW0yTTkkn_-15" value="" style="line;strokeWidth=1;fillColor=none;align=left;verticalAlign=middle;spacingTop=-1;spacingLeft=3;spacingRight=3;rotatable=0;labelPosition=right;points=[];portConstraint=eastwest;" vertex="1" parent="r0ZETI2wqyOW0yTTkkn_-13">
          <mxGeometry y="26" width="240" height="8" as="geometry"/>
        </mxCell>
        <mxCell id="r0ZETI2wqyOW0yTTkkn_-16" value="+ DeliveryMan(uname:String, pass:string)&#xa;+ UpdateDelivery( order:Order)&#xa;" style="text;strokeColor=none;fillColor=none;align=left;verticalAlign=top;spacingLeft=4;spacingRight=4;overflow=hidden;rotatable=0;points=[[0,0.5],[1,0.5]];portConstraint=eastwest;" vertex="1" parent="r0ZETI2wqyOW0yTTkkn_-13">
          <mxGeometry y="34" width="240" height="86" as="geometry"/>
        </mxCell>
        <mxCell id="r0ZETI2wqyOW0yTTkkn_-17" value="Admin" style="swimlane;fontStyle=1;align=center;verticalAlign=top;childLayout=stackLayout;horizontal=1;startSize=26;horizontalStack=0;resizeParent=1;resizeParentMax=0;resizeLast=0;collapsible=1;marginBottom=0;" vertex="1" parent="1">
          <mxGeometry x="740" y="510" width="210" height="60" as="geometry"/>
        </mxCell>
        <mxCell id="r0ZETI2wqyOW0yTTkkn_-19" value="" style="line;strokeWidth=1;fillColor=none;align=left;verticalAlign=middle;spacingTop=-1;spacingLeft=3;spacingRight=3;rotatable=0;labelPosition=right;points=[];portConstraint=eastwest;" vertex="1" parent="r0ZETI2wqyOW0yTTkkn_-17">
          <mxGeometry y="26" width="210" height="8" as="geometry"/>
        </mxCell>
        <mxCell id="r0ZETI2wqyOW0yTTkkn_-20" value="+ Admin (uname:string, pass:string)" style="text;strokeColor=none;fillColor=none;align=left;verticalAlign=top;spacingLeft=4;spacingRight=4;overflow=hidden;rotatable=0;points=[[0,0.5],[1,0.5]];portConstraint=eastwest;" vertex="1" parent="r0ZETI2wqyOW0yTTkkn_-17">
          <mxGeometry y="34" width="210" height="26" as="geometry"/>
        </mxCell>
        <mxCell id="r0ZETI2wqyOW0yTTkkn_-22" value="Order" style="swimlane;fontStyle=1;align=center;verticalAlign=top;childLayout=stackLayout;horizontal=1;startSize=26;horizontalStack=0;resizeParent=1;resizeParentMax=0;resizeLast=0;collapsible=1;marginBottom=0;" vertex="1" parent="1">
          <mxGeometry x="430" y="690" width="220" height="208" as="geometry"/>
        </mxCell>
        <mxCell id="r0ZETI2wqyOW0yTTkkn_-23" value="- _orderID: int&#xa;-_item:Stock&#xa;-_orderStatus: string&#xa;-_deliveryStatus:string&#xa;&#xa;&#xa;" style="text;strokeColor=none;fillColor=none;align=left;verticalAlign=top;spacingLeft=4;spacingRight=4;overflow=hidden;rotatable=0;points=[[0,0.5],[1,0.5]];portConstraint=eastwest;" vertex="1" parent="r0ZETI2wqyOW0yTTkkn_-22">
          <mxGeometry y="26" width="220" height="74" as="geometry"/>
        </mxCell>
        <mxCell id="r0ZETI2wqyOW0yTTkkn_-24" value="" style="line;strokeWidth=1;fillColor=none;align=left;verticalAlign=middle;spacingTop=-1;spacingLeft=3;spacingRight=3;rotatable=0;labelPosition=right;points=[];portConstraint=eastwest;" vertex="1" parent="r0ZETI2wqyOW0yTTkkn_-22">
          <mxGeometry y="100" width="220" height="8" as="geometry"/>
        </mxCell>
        <mxCell id="r0ZETI2wqyOW0yTTkkn_-25" value="+ Order(orderID:int, item:Stock)&#xa;+ OrderID:int &lt;&lt;property&gt;&gt;&#xa;+ Item: Stock &lt;&lt;property&gt;&gt;&#xa;+OrderStatus: string &lt;&lt;property&gt;&gt;&#xa;+ DeliveryStatus:string &lt;&lt;property&gt;&gt;&#xa;" style="text;strokeColor=none;fillColor=none;align=left;verticalAlign=top;spacingLeft=4;spacingRight=4;overflow=hidden;rotatable=0;points=[[0,0.5],[1,0.5]];portConstraint=eastwest;" vertex="1" parent="r0ZETI2wqyOW0yTTkkn_-22">
          <mxGeometry y="108" width="220" height="100" as="geometry"/>
        </mxCell>
        <mxCell id="r0ZETI2wqyOW0yTTkkn_-26" value="SalesManagement" style="swimlane;fontStyle=1;align=center;verticalAlign=top;childLayout=stackLayout;horizontal=1;startSize=26;horizontalStack=0;resizeParent=1;resizeParentMax=0;resizeLast=0;collapsible=1;marginBottom=0;" vertex="1" parent="1">
          <mxGeometry x="760" y="770" width="160" height="110" as="geometry"/>
        </mxCell>
        <mxCell id="r0ZETI2wqyOW0yTTkkn_-27" value="- _orderList: List&lt;Order&gt;" style="text;strokeColor=none;fillColor=none;align=left;verticalAlign=top;spacingLeft=4;spacingRight=4;overflow=hidden;rotatable=0;points=[[0,0.5],[1,0.5]];portConstraint=eastwest;" vertex="1" parent="r0ZETI2wqyOW0yTTkkn_-26">
          <mxGeometry y="26" width="160" height="26" as="geometry"/>
        </mxCell>
        <mxCell id="r0ZETI2wqyOW0yTTkkn_-28" value="" style="line;strokeWidth=1;fillColor=none;align=left;verticalAlign=middle;spacingTop=-1;spacingLeft=3;spacingRight=3;rotatable=0;labelPosition=right;points=[];portConstraint=eastwest;" vertex="1" parent="r0ZETI2wqyOW0yTTkkn_-26">
          <mxGeometry y="52" width="160" height="8" as="geometry"/>
        </mxCell>
        <mxCell id="r0ZETI2wqyOW0yTTkkn_-29" value="+ SalesManagement&#xa;+ AddOrder()&#xa;" style="text;strokeColor=none;fillColor=none;align=left;verticalAlign=top;spacingLeft=4;spacingRight=4;overflow=hidden;rotatable=0;points=[[0,0.5],[1,0.5]];portConstraint=eastwest;" vertex="1" parent="r0ZETI2wqyOW0yTTkkn_-26">
          <mxGeometry y="60" width="160" height="50" as="geometry"/>
        </mxCell>
        <mxCell id="r0ZETI2wqyOW0yTTkkn_-30" value="Stock" style="swimlane;fontStyle=1;align=center;verticalAlign=top;childLayout=stackLayout;horizontal=1;startSize=26;horizontalStack=0;resizeParent=1;resizeParentMax=0;resizeLast=0;collapsible=1;marginBottom=0;" vertex="1" parent="1">
          <mxGeometry x="40" y="930" width="320" height="180" as="geometry"/>
        </mxCell>
        <mxCell id="r0ZETI2wqyOW0yTTkkn_-31" value="-_name:string&#xa;-_vehicle: VehicleType&#xa;-_stockAvail: int&#xa;" style="text;strokeColor=none;fillColor=none;align=left;verticalAlign=top;spacingLeft=4;spacingRight=4;overflow=hidden;rotatable=0;points=[[0,0.5],[1,0.5]];portConstraint=eastwest;" vertex="1" parent="r0ZETI2wqyOW0yTTkkn_-30">
          <mxGeometry y="26" width="320" height="54" as="geometry"/>
        </mxCell>
        <mxCell id="r0ZETI2wqyOW0yTTkkn_-32" value="" style="line;strokeWidth=1;fillColor=none;align=left;verticalAlign=middle;spacingTop=-1;spacingLeft=3;spacingRight=3;rotatable=0;labelPosition=right;points=[];portConstraint=eastwest;" vertex="1" parent="r0ZETI2wqyOW0yTTkkn_-30">
          <mxGeometry y="80" width="320" height="8" as="geometry"/>
        </mxCell>
        <mxCell id="r0ZETI2wqyOW0yTTkkn_-33" value="+ Stock(name:string, vehicle: VehicleType, stockavail:int)&#xa;+ Name:string &lt;&lt;property&gt;&gt;&#xa;+ Vehicle : VehicleType &lt;&lt;property&gt;&gt;&#xa;+ Available: int &lt;&lt;property&gt;&gt;&#xa;" style="text;strokeColor=none;fillColor=none;align=left;verticalAlign=top;spacingLeft=4;spacingRight=4;overflow=hidden;rotatable=0;points=[[0,0.5],[1,0.5]];portConstraint=eastwest;" vertex="1" parent="r0ZETI2wqyOW0yTTkkn_-30">
          <mxGeometry y="88" width="320" height="92" as="geometry"/>
        </mxCell>
        <mxCell id="r0ZETI2wqyOW0yTTkkn_-34" value="StockManagement" style="swimlane;fontStyle=1;align=center;verticalAlign=top;childLayout=stackLayout;horizontal=1;startSize=26;horizontalStack=0;resizeParent=1;resizeParentMax=0;resizeLast=0;collapsible=1;marginBottom=0;" vertex="1" parent="1">
          <mxGeometry x="460" y="950" width="430" height="200" as="geometry"/>
        </mxCell>
        <mxCell id="r0ZETI2wqyOW0yTTkkn_-35" value="-_stockList: List&lt;Stock&gt;" style="text;strokeColor=none;fillColor=none;align=left;verticalAlign=top;spacingLeft=4;spacingRight=4;overflow=hidden;rotatable=0;points=[[0,0.5],[1,0.5]];portConstraint=eastwest;" vertex="1" parent="r0ZETI2wqyOW0yTTkkn_-34">
          <mxGeometry y="26" width="430" height="26" as="geometry"/>
        </mxCell>
        <mxCell id="r0ZETI2wqyOW0yTTkkn_-36" value="" style="line;strokeWidth=1;fillColor=none;align=left;verticalAlign=middle;spacingTop=-1;spacingLeft=3;spacingRight=3;rotatable=0;labelPosition=right;points=[];portConstraint=eastwest;" vertex="1" parent="r0ZETI2wqyOW0yTTkkn_-34">
          <mxGeometry y="52" width="430" height="8" as="geometry"/>
        </mxCell>
        <mxCell id="r0ZETI2wqyOW0yTTkkn_-37" value="+StockManagement()&#xa;+AddStock(name:string, vehicle:VehicleType,stockAvail:int)&#xa;+EditStock()&#xa;+CreateStock()&#xa;+CheckStock()&#xa;" style="text;strokeColor=none;fillColor=none;align=left;verticalAlign=top;spacingLeft=4;spacingRight=4;overflow=hidden;rotatable=0;points=[[0,0.5],[1,0.5]];portConstraint=eastwest;" vertex="1" parent="r0ZETI2wqyOW0yTTkkn_-34">
          <mxGeometry y="60" width="430" height="140" as="geometry"/>
        </mxCell>
        <mxCell id="r0ZETI2wqyOW0yTTkkn_-38" value="&lt;p style=&quot;margin: 0px ; margin-top: 4px ; text-align: center&quot;&gt;&lt;i&gt;&amp;lt;&amp;lt;enumeration&amp;gt;&amp;gt;&lt;/i&gt;&lt;br&gt;&lt;b&gt;VehicleType&lt;/b&gt;&lt;/p&gt;&lt;hr size=&quot;1&quot;&gt;&lt;p style=&quot;margin: 0px ; margin-left: 4px&quot;&gt;+ Car&lt;/p&gt;&lt;p style=&quot;margin: 0px ; margin-left: 4px&quot;&gt;+ Motorcycle&lt;/p&gt;+ BusTruck&lt;hr size=&quot;1&quot;&gt;" style="verticalAlign=top;align=left;overflow=fill;fontSize=12;fontFamily=Helvetica;html=1;" vertex="1" parent="1">
          <mxGeometry x="80" y="730" width="110" height="100" as="geometry"/>
        </mxCell>
      </root>
    </mxGraphModel>
  </diagram>
</mxfile>
